<mxfile host="65bd71144e">
    <diagram name="Page-1" id="-9SWSkEaFFVzU4f-eSnA">
        <mxGraphModel dx="1080" dy="595" grid="0" gridSize="10" guides="1" tooltips="1" connect="1" arrows="1" fold="1" page="0" pageScale="1" pageWidth="827" pageHeight="1169" math="0" shadow="0">
            <root>
                <mxCell id="0"/>
                <mxCell id="1" parent="0"/>
                <mxCell id="1Nl6IdvRE0F9Ei_vup24-1" value="Monstre" style="swimlane;fontStyle=0;childLayout=stackLayout;horizontal=1;startSize=30;horizontalStack=0;resizeParent=1;resizeParentMax=0;resizeLast=0;collapsible=1;marginBottom=0;whiteSpace=wrap;html=1;" parent="1" vertex="1">
                    <mxGeometry x="530" y="160" width="140" height="240" as="geometry"/>
                </mxCell>
                <mxCell id="1Nl6IdvRE0F9Ei_vup24-2" value="&lt;u&gt;code_monstre&lt;/u&gt;" style="text;strokeColor=none;fillColor=none;align=left;verticalAlign=middle;spacingLeft=4;spacingRight=4;overflow=hidden;points=[[0,0.5],[1,0.5]];portConstraint=eastwest;rotatable=0;whiteSpace=wrap;html=1;" parent="1Nl6IdvRE0F9Ei_vup24-1" vertex="1">
                    <mxGeometry y="30" width="140" height="30" as="geometry"/>
                </mxCell>
                <mxCell id="1Nl6IdvRE0F9Ei_vup24-3" value="nom" style="text;strokeColor=none;fillColor=none;align=left;verticalAlign=middle;spacingLeft=4;spacingRight=4;overflow=hidden;points=[[0,0.5],[1,0.5]];portConstraint=eastwest;rotatable=0;whiteSpace=wrap;html=1;" parent="1Nl6IdvRE0F9Ei_vup24-1" vertex="1">
                    <mxGeometry y="60" width="140" height="30" as="geometry"/>
                </mxCell>
                <mxCell id="1Nl6IdvRE0F9Ei_vup24-4" value="description" style="text;strokeColor=none;fillColor=none;align=left;verticalAlign=middle;spacingLeft=4;spacingRight=4;overflow=hidden;points=[[0,0.5],[1,0.5]];portConstraint=eastwest;rotatable=0;whiteSpace=wrap;html=1;" parent="1Nl6IdvRE0F9Ei_vup24-1" vertex="1">
                    <mxGeometry y="90" width="140" height="30" as="geometry"/>
                </mxCell>
                <mxCell id="XB2ilNpJ5UjSh30scuJ3-1" value="race" style="text;strokeColor=none;fillColor=none;align=left;verticalAlign=middle;spacingLeft=4;spacingRight=4;overflow=hidden;points=[[0,0.5],[1,0.5]];portConstraint=eastwest;rotatable=0;whiteSpace=wrap;html=1;" parent="1Nl6IdvRE0F9Ei_vup24-1" vertex="1">
                    <mxGeometry y="120" width="140" height="30" as="geometry"/>
                </mxCell>
                <mxCell id="XB2ilNpJ5UjSh30scuJ3-2" value="localisation" style="text;strokeColor=none;fillColor=none;align=left;verticalAlign=middle;spacingLeft=4;spacingRight=4;overflow=hidden;points=[[0,0.5],[1,0.5]];portConstraint=eastwest;rotatable=0;whiteSpace=wrap;html=1;" parent="1Nl6IdvRE0F9Ei_vup24-1" vertex="1">
                    <mxGeometry y="150" width="140" height="30" as="geometry"/>
                </mxCell>
                <mxCell id="XB2ilNpJ5UjSh30scuJ3-3" value="faiblesse" style="text;strokeColor=none;fillColor=none;align=left;verticalAlign=middle;spacingLeft=4;spacingRight=4;overflow=hidden;points=[[0,0.5],[1,0.5]];portConstraint=eastwest;rotatable=0;whiteSpace=wrap;html=1;" parent="1Nl6IdvRE0F9Ei_vup24-1" vertex="1">
                    <mxGeometry y="180" width="140" height="30" as="geometry"/>
                </mxCell>
                <mxCell id="XB2ilNpJ5UjSh30scuJ3-4" value="résistance" style="text;strokeColor=none;fillColor=none;align=left;verticalAlign=middle;spacingLeft=4;spacingRight=4;overflow=hidden;points=[[0,0.5],[1,0.5]];portConstraint=eastwest;rotatable=0;whiteSpace=wrap;html=1;" parent="1Nl6IdvRE0F9Ei_vup24-1" vertex="1">
                    <mxGeometry y="210" width="140" height="30" as="geometry"/>
                </mxCell>
                <mxCell id="XB2ilNpJ5UjSh30scuJ3-6" value="Race" style="swimlane;fontStyle=0;childLayout=stackLayout;horizontal=1;startSize=30;horizontalStack=0;resizeParent=1;resizeParentMax=0;resizeLast=0;collapsible=1;marginBottom=0;whiteSpace=wrap;html=1;" parent="1" vertex="1">
                    <mxGeometry x="900" y="160" width="140" height="120" as="geometry"/>
                </mxCell>
                <mxCell id="XB2ilNpJ5UjSh30scuJ3-7" value="&lt;u&gt;nom&lt;/u&gt;" style="text;strokeColor=none;fillColor=none;align=left;verticalAlign=middle;spacingLeft=4;spacingRight=4;overflow=hidden;points=[[0,0.5],[1,0.5]];portConstraint=eastwest;rotatable=0;whiteSpace=wrap;html=1;" parent="XB2ilNpJ5UjSh30scuJ3-6" vertex="1">
                    <mxGeometry y="30" width="140" height="30" as="geometry"/>
                </mxCell>
                <mxCell id="XB2ilNpJ5UjSh30scuJ3-8" value="description" style="text;strokeColor=none;fillColor=none;align=left;verticalAlign=middle;spacingLeft=4;spacingRight=4;overflow=hidden;points=[[0,0.5],[1,0.5]];portConstraint=eastwest;rotatable=0;whiteSpace=wrap;html=1;" parent="XB2ilNpJ5UjSh30scuJ3-6" vertex="1">
                    <mxGeometry y="60" width="140" height="30" as="geometry"/>
                </mxCell>
                <mxCell id="XB2ilNpJ5UjSh30scuJ3-10" value="image" style="text;strokeColor=none;fillColor=none;align=left;verticalAlign=middle;spacingLeft=4;spacingRight=4;overflow=hidden;points=[[0,0.5],[1,0.5]];portConstraint=eastwest;rotatable=0;whiteSpace=wrap;html=1;" parent="XB2ilNpJ5UjSh30scuJ3-6" vertex="1">
                    <mxGeometry y="90" width="140" height="30" as="geometry"/>
                </mxCell>
                <mxCell id="XB2ilNpJ5UjSh30scuJ3-11" value="Localisation" style="swimlane;fontStyle=0;childLayout=stackLayout;horizontal=1;startSize=30;horizontalStack=0;resizeParent=1;resizeParentMax=0;resizeLast=0;collapsible=1;marginBottom=0;whiteSpace=wrap;html=1;" parent="1" vertex="1">
                    <mxGeometry x="900" y="310" width="140" height="90" as="geometry"/>
                </mxCell>
                <mxCell id="XB2ilNpJ5UjSh30scuJ3-12" value="&lt;u&gt;nom&lt;/u&gt;" style="text;strokeColor=none;fillColor=none;align=left;verticalAlign=middle;spacingLeft=4;spacingRight=4;overflow=hidden;points=[[0,0.5],[1,0.5]];portConstraint=eastwest;rotatable=0;whiteSpace=wrap;html=1;" parent="XB2ilNpJ5UjSh30scuJ3-11" vertex="1">
                    <mxGeometry y="30" width="140" height="30" as="geometry"/>
                </mxCell>
                <mxCell id="XB2ilNpJ5UjSh30scuJ3-13" value="description" style="text;strokeColor=none;fillColor=none;align=left;verticalAlign=middle;spacingLeft=4;spacingRight=4;overflow=hidden;points=[[0,0.5],[1,0.5]];portConstraint=eastwest;rotatable=0;whiteSpace=wrap;html=1;" parent="XB2ilNpJ5UjSh30scuJ3-11" vertex="1">
                    <mxGeometry y="60" width="140" height="30" as="geometry"/>
                </mxCell>
                <mxCell id="XB2ilNpJ5UjSh30scuJ3-15" value="Faiblesse" style="swimlane;fontStyle=0;childLayout=stackLayout;horizontal=1;startSize=30;horizontalStack=0;resizeParent=1;resizeParentMax=0;resizeLast=0;collapsible=1;marginBottom=0;whiteSpace=wrap;html=1;" parent="1" vertex="1">
                    <mxGeometry x="120" y="160" width="140" height="90" as="geometry"/>
                </mxCell>
                <mxCell id="XB2ilNpJ5UjSh30scuJ3-16" value="&lt;u&gt;nom&lt;/u&gt;" style="text;strokeColor=none;fillColor=none;align=left;verticalAlign=middle;spacingLeft=4;spacingRight=4;overflow=hidden;points=[[0,0.5],[1,0.5]];portConstraint=eastwest;rotatable=0;whiteSpace=wrap;html=1;" parent="XB2ilNpJ5UjSh30scuJ3-15" vertex="1">
                    <mxGeometry y="30" width="140" height="30" as="geometry"/>
                </mxCell>
                <mxCell id="XB2ilNpJ5UjSh30scuJ3-17" value="description" style="text;strokeColor=none;fillColor=none;align=left;verticalAlign=middle;spacingLeft=4;spacingRight=4;overflow=hidden;points=[[0,0.5],[1,0.5]];portConstraint=eastwest;rotatable=0;whiteSpace=wrap;html=1;" parent="XB2ilNpJ5UjSh30scuJ3-15" vertex="1">
                    <mxGeometry y="60" width="140" height="30" as="geometry"/>
                </mxCell>
                <mxCell id="XB2ilNpJ5UjSh30scuJ3-19" value="Résistance" style="swimlane;fontStyle=0;childLayout=stackLayout;horizontal=1;startSize=30;horizontalStack=0;resizeParent=1;resizeParentMax=0;resizeLast=0;collapsible=1;marginBottom=0;whiteSpace=wrap;html=1;" parent="1" vertex="1">
                    <mxGeometry x="120" y="310" width="140" height="90" as="geometry"/>
                </mxCell>
                <mxCell id="XB2ilNpJ5UjSh30scuJ3-20" value="&lt;u&gt;nom&lt;/u&gt;" style="text;strokeColor=none;fillColor=none;align=left;verticalAlign=middle;spacingLeft=4;spacingRight=4;overflow=hidden;points=[[0,0.5],[1,0.5]];portConstraint=eastwest;rotatable=0;whiteSpace=wrap;html=1;" parent="XB2ilNpJ5UjSh30scuJ3-19" vertex="1">
                    <mxGeometry y="30" width="140" height="30" as="geometry"/>
                </mxCell>
                <mxCell id="XB2ilNpJ5UjSh30scuJ3-21" value="description" style="text;strokeColor=none;fillColor=none;align=left;verticalAlign=middle;spacingLeft=4;spacingRight=4;overflow=hidden;points=[[0,0.5],[1,0.5]];portConstraint=eastwest;rotatable=0;whiteSpace=wrap;html=1;" parent="XB2ilNpJ5UjSh30scuJ3-19" vertex="1">
                    <mxGeometry y="60" width="140" height="30" as="geometry"/>
                </mxCell>
                <mxCell id="XB2ilNpJ5UjSh30scuJ3-31" value="Appartient" style="ellipse;whiteSpace=wrap;html=1;" parent="1" vertex="1">
                    <mxGeometry x="760" y="185" width="80" height="60" as="geometry"/>
                </mxCell>
                <mxCell id="XB2ilNpJ5UjSh30scuJ3-47" style="edgeStyle=orthogonalEdgeStyle;rounded=0;orthogonalLoop=1;jettySize=auto;html=1;entryX=1;entryY=0.5;entryDx=0;entryDy=0;" parent="1" source="XB2ilNpJ5UjSh30scuJ3-34" target="XB2ilNpJ5UjSh30scuJ3-3" edge="1">
                    <mxGeometry relative="1" as="geometry"/>
                </mxCell>
                <mxCell id="XB2ilNpJ5UjSh30scuJ3-48" style="edgeStyle=orthogonalEdgeStyle;rounded=0;orthogonalLoop=1;jettySize=auto;html=1;entryX=0;entryY=0.5;entryDx=0;entryDy=0;" parent="1" source="XB2ilNpJ5UjSh30scuJ3-34" target="XB2ilNpJ5UjSh30scuJ3-12" edge="1">
                    <mxGeometry relative="1" as="geometry"/>
                </mxCell>
                <mxCell id="XB2ilNpJ5UjSh30scuJ3-34" value="Relier" style="ellipse;whiteSpace=wrap;html=1;" parent="1" vertex="1">
                    <mxGeometry x="765" y="330" width="70" height="50" as="geometry"/>
                </mxCell>
                <mxCell id="XB2ilNpJ5UjSh30scuJ3-38" value="A" style="ellipse;whiteSpace=wrap;html=1;" parent="1" vertex="1">
                    <mxGeometry x="360" y="170" width="80" height="50" as="geometry"/>
                </mxCell>
                <mxCell id="XB2ilNpJ5UjSh30scuJ3-41" value="A" style="ellipse;whiteSpace=wrap;html=1;" parent="1" vertex="1">
                    <mxGeometry x="360" y="310" width="80" height="50" as="geometry"/>
                </mxCell>
                <mxCell id="XB2ilNpJ5UjSh30scuJ3-44" value="1,N" style="text;html=1;align=center;verticalAlign=middle;resizable=0;points=[];autosize=1;strokeColor=none;fillColor=none;" parent="1" vertex="1">
                    <mxGeometry x="780" y="155" width="40" height="30" as="geometry"/>
                </mxCell>
                <mxCell id="XB2ilNpJ5UjSh30scuJ3-45" style="edgeStyle=orthogonalEdgeStyle;rounded=0;orthogonalLoop=1;jettySize=auto;html=1;entryX=0;entryY=-0.167;entryDx=0;entryDy=0;entryPerimeter=0;" parent="1" source="XB2ilNpJ5UjSh30scuJ3-31" target="XB2ilNpJ5UjSh30scuJ3-8" edge="1">
                    <mxGeometry relative="1" as="geometry"/>
                </mxCell>
                <mxCell id="XB2ilNpJ5UjSh30scuJ3-46" style="edgeStyle=orthogonalEdgeStyle;rounded=0;orthogonalLoop=1;jettySize=auto;html=1;entryX=1;entryY=0.839;entryDx=0;entryDy=0;entryPerimeter=0;" parent="1" source="XB2ilNpJ5UjSh30scuJ3-31" target="1Nl6IdvRE0F9Ei_vup24-2" edge="1">
                    <mxGeometry relative="1" as="geometry"/>
                </mxCell>
                <mxCell id="XB2ilNpJ5UjSh30scuJ3-49" style="edgeStyle=orthogonalEdgeStyle;rounded=0;orthogonalLoop=1;jettySize=auto;html=1;entryX=0.929;entryY=0.167;entryDx=0;entryDy=0;entryPerimeter=0;" parent="1" source="XB2ilNpJ5UjSh30scuJ3-38" target="XB2ilNpJ5UjSh30scuJ3-16" edge="1">
                    <mxGeometry relative="1" as="geometry"/>
                </mxCell>
                <mxCell id="XB2ilNpJ5UjSh30scuJ3-50" style="edgeStyle=orthogonalEdgeStyle;rounded=0;orthogonalLoop=1;jettySize=auto;html=1;entryX=-0.009;entryY=0.18;entryDx=0;entryDy=0;entryPerimeter=0;" parent="1" source="XB2ilNpJ5UjSh30scuJ3-38" target="1Nl6IdvRE0F9Ei_vup24-2" edge="1">
                    <mxGeometry relative="1" as="geometry"/>
                </mxCell>
                <mxCell id="XB2ilNpJ5UjSh30scuJ3-51" style="edgeStyle=orthogonalEdgeStyle;rounded=0;orthogonalLoop=1;jettySize=auto;html=1;entryX=1.004;entryY=-0.145;entryDx=0;entryDy=0;entryPerimeter=0;" parent="1" source="XB2ilNpJ5UjSh30scuJ3-41" target="XB2ilNpJ5UjSh30scuJ3-20" edge="1">
                    <mxGeometry relative="1" as="geometry"/>
                </mxCell>
                <mxCell id="XB2ilNpJ5UjSh30scuJ3-52" style="edgeStyle=orthogonalEdgeStyle;rounded=0;orthogonalLoop=1;jettySize=auto;html=1;entryX=-0.009;entryY=0.855;entryDx=0;entryDy=0;entryPerimeter=0;" parent="1" source="XB2ilNpJ5UjSh30scuJ3-41" target="XB2ilNpJ5UjSh30scuJ3-2" edge="1">
                    <mxGeometry relative="1" as="geometry"/>
                </mxCell>
                <mxCell id="XB2ilNpJ5UjSh30scuJ3-53" value="N,N" style="text;html=1;align=center;verticalAlign=middle;resizable=0;points=[];autosize=1;strokeColor=none;fillColor=none;" parent="1" vertex="1">
                    <mxGeometry x="780" y="300" width="40" height="30" as="geometry"/>
                </mxCell>
                <mxCell id="XB2ilNpJ5UjSh30scuJ3-54" value="N,N" style="text;html=1;align=center;verticalAlign=middle;resizable=0;points=[];autosize=1;strokeColor=none;fillColor=none;" parent="1" vertex="1">
                    <mxGeometry x="380" y="280" width="40" height="30" as="geometry"/>
                </mxCell>
                <mxCell id="XB2ilNpJ5UjSh30scuJ3-55" value="N,N" style="text;html=1;align=center;verticalAlign=middle;resizable=0;points=[];autosize=1;strokeColor=none;fillColor=none;" parent="1" vertex="1">
                    <mxGeometry x="380" y="140" width="40" height="30" as="geometry"/>
                </mxCell>
            </root>
        </mxGraphModel>
    </diagram>
</mxfile>